<?xml version="1.0" encoding="utf-8"?>
<!-- Generator: Adobe Illustrator 16.0.0, SVG Export Plug-In . SVG Version: 6.00 Build 0)  -->
<!DOCTYPE svg PUBLIC "-//W3C//DTD SVG 1.1//EN" "http://www.w3.org/Graphics/SVG/1.1/DTD/svg11.dtd">
<svg version="1.1" id="Capa_1" xmlns="http://www.w3.org/2000/svg" xmlns:xlink="http://www.w3.org/1999/xlink" x="0px" y="0px"
	 width="60px" height="60px" viewBox="0 0 60 60" enable-background="new 0 0 60 60" xml:space="preserve">
<g>
	<g>
		<path fill="#FF7E54" d="M59.914,23.116c-0.207-0.637-0.757-1.101-1.419-1.196l-18.601-2.703L31.576,2.362
			c-0.296-0.6-0.907-0.98-1.576-0.98s-1.28,0.38-1.576,0.98l-8.319,16.854l-18.6,2.703c-0.662,0.096-1.212,0.56-1.419,1.196
			c-0.207,0.636-0.034,1.335,0.445,1.802L13.99,38.037l-3.177,18.525c-0.113,0.66,0.158,1.326,0.699,1.72
			c0.306,0.222,0.669,0.335,1.033,0.335c0.28,0,0.561-0.066,0.818-0.201L30,49.669l16.636,8.747c0.593,0.311,1.31,0.26,1.852-0.135
			c0.541-0.393,0.812-1.059,0.699-1.719l-3.178-18.525l13.46-13.119C59.948,24.451,60.121,23.752,59.914,23.116z"/>
	</g>
</g>
</svg>
